<?xml version="1.0" encoding="utf-8"?>
<!-- Generator: Adobe Illustrator 16.0.4, SVG Export Plug-In . SVG Version: 6.00 Build 0)  -->
<!DOCTYPE svg PUBLIC "-//W3C//DTD SVG 1.1//EN" "http://www.w3.org/Graphics/SVG/1.1/DTD/svg11.dtd">
<svg version="1.1" id="Layer_1" xmlns="http://www.w3.org/2000/svg" xmlns:xlink="http://www.w3.org/1999/xlink" x="0px" y="0px"
	 width="200px" height="50px" viewBox="0 0 200 50" enable-background="new 0 0 200 50" xml:space="preserve">
<g>
	<path fill-rule="evenodd" clip-rule="evenodd" fill="#3D3D3D" d="M33.841,24.85c0.265-1.088,0.648-2.06,0.707-3.049
		c0.083-1.388-0.078-2.79-0.126-4.188c-0.015-0.434-0.055-0.879,0.011-1.306c0.203-1.315-0.517-2.407-1.272-3.949
		c-0.755-1.542-4.045-4.044-6.097-4.755c-2.051-0.712-3.878-1.283-5.96-0.519c-0.396,0.146-0.917-0.087-1.377-0.068
		c-0.658,0.025-1.466-0.1-1.938,0.23c-1.236,0.858-2.394,1.946-2.814,3.428c-0.333,1.177-1.127,1.611-2.08,1.987
		c-1.621,0.639-2.184,1.514-2.097,3.237c0.053,1.027,0.051,2.059,0.074,3.087c0.035,1.521,0.078,3.042,0.094,4.565
		c0.003,0.241-0.036,0.569-0.191,0.712c-0.924,0.862-0.99,1.88-0.683,3.015c0.284,1.053,0.596,2.104,0.777,3.176
		c0.184,1.09,0.32,1.729,0.538,2.808c0.503,2.502,1.209,3.043,2.777,5.203c0.163,0.225,0.214,0.527,0.363,0.764
		c0.596,0.947,0.647,1.033,1.412,1.82c0.771,0.791,1.237,1.656,2.45,1.947c1.211,0.291,1.881,0.273,3.799,0.252
		c1.916-0.023,2.11,0.172,3.359-0.189c1.045-0.303,1.194-0.506,2.104-1.037c0.968-0.564,2.668-2.084,2.983-3.107
		c0.189-0.617,1.978-2.16,2.424-3.895c0.362-1.412,0.538-2.874,0.812-4.312c0.222-1.166,0.564-2.32,0.672-3.496
		C34.647,26.292,34.444,25.353,33.841,24.85z M26.846,36.631c-0.224,0.674-1.758,1.928-2.69,2.008
		c-1.47-0.738-2.341-0.951-3.519-0.033c-0.871,0.143-3.492-0.711-2.84-3.002c0.484-1.703,1.041-2.111,2.829-2.127
		c0.223,0,0.495-0.102,0.663-0.25c0.692-0.612,1.375-0.334,2.088-0.064c0.461,0.176,0.945,0.303,1.431,0.393
		C26.217,33.818,27.288,35.293,26.846,36.631z M32.524,30.21c-0.447,1.072-1.15,1.945-2.049,2.7
		c-0.447,0.375-0.886,2.043-1.266,2.58c-0.422-0.309-0.774-1.797-1.326-2.17c-1.301-0.88-0.918-0.679-2.285-1.44
		c-0.522-0.291-1.162-1.068-3.737-1.068c-0.111,0-1.448,0.236-1.884,0.471c-1.375,0.682-1.572,0.484-2.907,1.236
		c-0.402,0.226-0.743,0.728-0.907,1.177c-0.242,0.668-0.301,1.402-0.445,2.143c-0.054-0.074-0.125-0.131-0.144-0.203
		c-0.366-1.402-1.297-2.379-2.294-3.386c-0.94-0.953-1.368-2.275-1.384-3.656c-0.016-1.279,0-2.562,0.025-3.842
		c0.004-0.195,0.129-0.387,0.274-0.598c0.271,1.768,1.307,3.061,2.77,3.791c0.872,0.436,2.107,0.502,3.083,0.291
		c2.395-0.516,3.656-2.719,3.128-5.316c0.605,0.113,1.759,0.102,2.097-0.035c-0.126,1.49,0.11,2.613,0.587,3.835
		c1.1,2.815,5.632,2.583,7.112,0.173c0.613-0.997,1.092-2.078,1.669-3.195C32.7,25.888,33.421,28.054,32.524,30.21z M13.343,22.884
		c0.221-2.212,4.942-1.729,5.581-1.494c0.941,0.345,1.42,1.094,1.402,2.227c-0.036,2.305-0.348,4.609-4.339,3.982
		C13.313,27.179,13.214,24.123,13.343,22.884z M24.199,23.641c0.04-1.132,0.558-1.856,1.515-2.152
		c0.65-0.202,5.39-0.441,5.498,1.781c0.063,1.243-0.194,4.29-2.886,4.571C24.308,28.261,24.117,25.944,24.199,23.641z
		 M29.236,20.761c0.009-0.045-3.143-0.57-4.415,0.086c-1.542,0.794-3.345,0.889-4.545,0.277s-4.335-1.209-6.517-0.16
		c-0.99,0.476-1.355,0.251-1.421-0.812c-0.134-2.135,0.083-4.19,1.559-5.913c0.636-0.743,1.158-1.607,1.878-2.251
		c1.644-1.47,3.573-0.805,5.356-0.38c0.93,0.222,1.763,0.101,2.64,0.018c1.237-0.119,2.476-0.399,3.708-0.37
		c1.308,0.031,2.365,0.685,2.989,1.935c0.27,0.542,0.699,1.002,0.999,1.532c0.394,0.698,0.913,1.395,1.058,2.153
		c0.29,1.524,0.362,3.09,0.557,4.954C31.649,21.431,30.442,21.096,29.236,20.761z"/>
</g>
<text transform="matrix(1 0 0 1 46.2905 37.0293)" fill="#4F8EF7" font-family="'OpenSans-Light'" font-size="25.2756">codebeard.io</text>
</svg>
