<?xml version="1.0" encoding="utf-8"?>
<!-- Generator: Adobe Illustrator 16.0.4, SVG Export Plug-In . SVG Version: 6.00 Build 0)  -->
<!DOCTYPE svg PUBLIC "-//W3C//DTD SVG 1.1//EN" "http://www.w3.org/Graphics/SVG/1.1/DTD/svg11.dtd">
<svg version="1.1" id="Layer_1" xmlns="http://www.w3.org/2000/svg" xmlns:xlink="http://www.w3.org/1999/xlink" x="0px" y="0px"
	 width="100px" height="100px" viewBox="0 0 100 100" enable-background="new 0 0 100 100" xml:space="preserve">
<g>
	<path fill-rule="evenodd" clip-rule="evenodd" fill="#3D3D3D" d="M79.021,49.625c0.662-2.724,1.621-5.158,1.77-7.636
		c0.208-3.475-0.192-6.987-0.316-10.488c-0.038-1.086-0.137-2.202,0.028-3.27c0.507-3.293-1.295-6.029-3.188-9.891
		c-1.894-3.864-10.13-10.129-15.269-11.91c-5.137-1.785-9.713-3.213-14.927-1.301c-0.991,0.365-2.296-0.219-3.449-0.171
		c-1.647,0.063-3.671-0.25-4.854,0.576c-3.096,2.148-5.995,4.873-7.049,8.584c-0.835,2.947-2.822,4.035-5.209,4.977
		c-4.059,1.6-5.471,3.792-5.251,8.106c0.131,2.574,0.128,5.157,0.186,7.733c0.087,3.81,0.195,7.618,0.235,11.433
		c0.007,0.604-0.09,1.425-0.478,1.783c-2.314,2.16-2.479,4.709-1.711,7.551c0.71,2.637,1.492,5.268,1.947,7.953
		c0.461,2.729,0.802,4.329,1.347,7.032c1.26,6.266,3.029,7.621,6.955,13.03c0.407,0.564,0.536,1.32,0.909,1.912
		c1.492,2.373,1.62,2.589,3.537,4.56c1.93,1.982,3.099,4.147,6.137,4.877c3.034,0.729,4.711,0.687,9.514,0.631
		c4.798-0.058,5.285,0.431,8.414-0.474c2.616-0.758,2.99-1.268,5.27-2.599c2.425-1.413,6.682-5.218,7.474-7.781
		c0.474-1.547,4.952-5.409,6.069-9.754c0.905-3.536,1.347-7.199,2.035-10.799c0.554-2.92,1.413-5.811,1.683-8.756
		C81.04,53.237,80.532,50.884,79.021,49.625z M61.501,79.132c-0.561,1.687-4.403,4.827-6.736,5.026
		c-3.683-1.848-5.864-2.381-8.815-0.082c-2.181,0.356-8.747-1.78-7.112-7.519c1.211-4.266,2.606-5.287,7.085-5.327
		c0.559,0,1.24-0.255,1.661-0.626c1.733-1.533,3.441-0.836,5.229-0.161c1.156,0.44,2.367,0.758,3.586,0.983
		C59.925,72.087,62.608,75.78,61.501,79.132z M75.723,63.051c-1.117,2.684-2.879,4.871-5.134,6.762
		c-1.117,0.939-2.218,5.117-3.169,6.463c-1.058-0.774-1.938-4.501-3.319-5.436c-3.258-2.204-2.303-1.699-5.721-3.607
		c-1.31-0.729-2.911-2.676-9.361-2.676c-0.28,0-3.627,0.592-4.719,1.178c-3.442,1.709-3.938,1.214-7.281,3.098
		c-1.007,0.565-1.859,1.821-2.27,2.947c-0.606,1.673-0.755,3.511-1.114,5.365c-0.135-0.187-0.314-0.326-0.361-0.508
		c-0.916-3.513-3.249-5.958-5.745-8.48c-2.354-2.387-3.426-5.699-3.466-9.156c-0.041-3.204,0-6.416,0.063-9.623
		c0.011-0.489,0.324-0.968,0.687-1.496c0.681,4.427,3.274,7.665,6.938,9.495c2.183,1.091,5.279,1.257,7.723,0.729
		c5.999-1.292,9.158-6.81,7.834-13.315c1.515,0.283,4.406,0.254,5.251-0.088c-0.318,3.731,0.273,6.544,1.472,9.604
		c2.754,7.052,14.103,6.47,17.811,0.433c1.537-2.497,2.734-5.204,4.183-8.002C76.162,52.225,77.97,57.65,75.723,63.051z
		 M27.682,44.702c0.553-5.542,12.377-4.33,13.978-3.742c2.356,0.865,3.556,2.74,3.512,5.576c-0.091,5.773-0.872,11.543-10.868,9.974
		C27.609,55.458,27.359,47.805,27.682,44.702z M54.872,46.597c0.101-2.836,1.399-4.649,3.796-5.39
		c1.627-0.505,13.495-1.104,13.769,4.459c0.157,3.114-0.486,10.744-7.229,11.449C55.146,58.169,54.667,52.366,54.872,46.597z
		 M67.489,39.385c0.022-0.113-7.872-1.427-11.058,0.217c-3.863,1.989-8.377,2.226-11.385,0.692
		c-3.007-1.532-10.858-3.027-16.321-0.4c-2.479,1.192-3.395,0.63-3.56-2.033c-0.336-5.348,0.209-10.495,3.904-14.811
		c1.593-1.86,2.899-4.024,4.704-5.637c4.116-3.681,8.949-2.017,13.415-0.953c2.33,0.555,4.416,0.252,6.611,0.045
		c3.1-0.298,6.2-1.001,9.283-0.928c3.278,0.079,5.924,1.715,7.489,4.847c0.676,1.357,1.752,2.51,2.5,3.837
		c0.989,1.748,2.29,3.493,2.651,5.392c0.725,3.817,0.905,7.74,1.395,12.407C73.529,41.063,70.509,40.224,67.489,39.385z"/>
</g>
</svg>
